<svg xmlns="http://www.w3.org/2000/svg" viewBox="0 0 119.43 110.4"><defs><style>.cls-1{fill:#dee0e0;}.cls-2{fill:#7df5d5;}.cls-2,.cls-3{stroke:#1e504e;stroke-miterlimit:10;stroke-width:2.86px;}.cls-3{fill:#fff;}</style></defs><title>Ресурс 3</title><g id="Шар_2" data-name="Шар 2"><g id="Layer_1" data-name="Layer 1"><circle class="cls-1" cx="64.29" cy="55.2" r="55.14"/><path class="cls-2" d="M69.25,18.9c-11.35,0-12.5,10.58-12.5,10.58S55.6,18.9,44.22,18.9H1.43V87.39H44.07s5.77,0,5.77,4.14H63.65c0-4.14,5.74-4.14,5.74-4.14h42.53V18.9Z"/><path class="cls-3" d="M56.75,82.79V22.07s1-10.36,10.36-10.36h35.36v67H67.23s-4.76,0-4.76,4Z"/><path class="cls-3" d="M56.75,82.79V22.07s-1-10.36-10.52-10.36H10.32v67H46.11s6.48.88,6.58,3.67Z"/><path class="cls-3" d="M56.75,82.79V22.07S56,11.51,48.61,9.48L20.8,1.87v67l27.71,7.59s5,2.26,5.1,5.07Z"/><line class="cls-3" x1="87.33" y1="48.9" x2="90.83" y2="43.98"/><line class="cls-3" x1="81.46" y1="48.9" x2="81.46" y2="41.6"/><line class="cls-3" x1="77.33" y1="48.9" x2="73.05" y2="44.62"/><line class="cls-3" x1="73.05" y1="53.82" x2="67.81" y2="49.7"/><line class="cls-3" x1="74" y1="58.9" x2="66.54" y2="58.9"/><line class="cls-3" x1="73.05" y1="63.35" x2="67.81" y2="67.48"/><path class="cls-3" d="M83.68,58.9l33.18,24s1.9,3.34-1.11,3.34H104l9.68,15.08a2.35,2.35,0,0,1-.31,3.17c-1.59,1.59-4.61,4-4.61,4s-2.22,1.91-4.28-1.43-8.89-15.24-8.89-15.24l-9.21,9s-2.7,1.11-2.7-2.06Z"/></g></g></svg>